<mxfile host="app.diagrams.net" agent="Mozilla/5.0 (Windows NT 10.0; Win64; x64) AppleWebKit/537.36 (KHTML, like Gecko) Chrome/141.0.0.0 Safari/537.36" version="28.2.8">
  <diagram name="Page-1" id="77sslh2CUhrmfMm4KzQK">
    <mxGraphModel dx="1641" dy="475" grid="1" gridSize="10" guides="1" tooltips="1" connect="1" arrows="1" fold="1" page="1" pageScale="1" pageWidth="850" pageHeight="1100" background="none" math="0" shadow="0">
      <root>
        <mxCell id="0" />
        <mxCell id="1" parent="0" />
        <mxCell id="IJdFylPpu1twR7NVgWoN-1" value="Program is Run" style="rounded=0;whiteSpace=wrap;html=1;" parent="1" vertex="1">
          <mxGeometry x="380" y="10" width="120" height="30" as="geometry" />
        </mxCell>
        <mxCell id="bGuJFjjBMeXotuM_YJSE-1" value="" style="endArrow=classic;html=1;rounded=0;exitX=0.5;exitY=1;exitDx=0;exitDy=0;" parent="1" source="IJdFylPpu1twR7NVgWoN-1" target="bGuJFjjBMeXotuM_YJSE-2" edge="1">
          <mxGeometry width="50" height="50" relative="1" as="geometry">
            <mxPoint x="401.99666666666667" y="50" as="sourcePoint" />
            <mxPoint x="450" y="120" as="targetPoint" />
          </mxGeometry>
        </mxCell>
        <mxCell id="bGuJFjjBMeXotuM_YJSE-2" value="Gui Asks If Encript or Decript" style="rounded=1;whiteSpace=wrap;html=1;" parent="1" vertex="1">
          <mxGeometry x="380" y="80" width="120" height="60" as="geometry" />
        </mxCell>
        <mxCell id="bGuJFjjBMeXotuM_YJSE-3" value="" style="endArrow=classic;html=1;rounded=0;" parent="1" edge="1">
          <mxGeometry relative="1" as="geometry">
            <mxPoint x="500" y="110" as="sourcePoint" />
            <mxPoint x="600" y="110" as="targetPoint" />
          </mxGeometry>
        </mxCell>
        <mxCell id="bGuJFjjBMeXotuM_YJSE-4" value="Decrypt" style="edgeLabel;resizable=0;html=1;;align=center;verticalAlign=middle;" parent="bGuJFjjBMeXotuM_YJSE-3" connectable="0" vertex="1">
          <mxGeometry relative="1" as="geometry" />
        </mxCell>
        <mxCell id="bGuJFjjBMeXotuM_YJSE-5" value="" style="endArrow=classic;html=1;rounded=0;entryX=1.004;entryY=0.398;entryDx=0;entryDy=0;entryPerimeter=0;" parent="1" target="bGuJFjjBMeXotuM_YJSE-8" edge="1">
          <mxGeometry relative="1" as="geometry">
            <mxPoint x="380" y="110" as="sourcePoint" />
            <mxPoint x="290" y="110" as="targetPoint" />
          </mxGeometry>
        </mxCell>
        <mxCell id="bGuJFjjBMeXotuM_YJSE-6" value="Encript" style="edgeLabel;resizable=0;html=1;;align=center;verticalAlign=middle;" parent="bGuJFjjBMeXotuM_YJSE-5" connectable="0" vertex="1">
          <mxGeometry relative="1" as="geometry" />
        </mxCell>
        <mxCell id="bGuJFjjBMeXotuM_YJSE-7" value="Asks if File Or Folder" style="rounded=1;whiteSpace=wrap;html=1;" parent="1" vertex="1">
          <mxGeometry x="190" y="190" width="120" height="50" as="geometry" />
        </mxCell>
        <mxCell id="bGuJFjjBMeXotuM_YJSE-8" value="Loads /encrypt" style="rounded=1;whiteSpace=wrap;html=1;" parent="1" vertex="1">
          <mxGeometry x="190" y="90" width="120" height="50" as="geometry" />
        </mxCell>
        <mxCell id="bGuJFjjBMeXotuM_YJSE-10" value="" style="endArrow=classic;html=1;rounded=0;entryX=0.5;entryY=0;entryDx=0;entryDy=0;" parent="1" target="bGuJFjjBMeXotuM_YJSE-7" edge="1">
          <mxGeometry width="50" height="50" relative="1" as="geometry">
            <mxPoint x="250" y="140" as="sourcePoint" />
            <mxPoint x="300" y="90" as="targetPoint" />
          </mxGeometry>
        </mxCell>
        <mxCell id="bGuJFjjBMeXotuM_YJSE-11" value="" style="endArrow=classic;html=1;rounded=0;entryX=0;entryY=0.5;entryDx=0;entryDy=0;" parent="1" edge="1" target="1zIBoOe9W9eC5epZJuoO-7">
          <mxGeometry relative="1" as="geometry">
            <mxPoint x="310" y="220" as="sourcePoint" />
            <mxPoint x="390" y="220" as="targetPoint" />
          </mxGeometry>
        </mxCell>
        <mxCell id="bGuJFjjBMeXotuM_YJSE-12" value="Folder" style="edgeLabel;resizable=0;html=1;;align=center;verticalAlign=middle;" parent="bGuJFjjBMeXotuM_YJSE-11" connectable="0" vertex="1">
          <mxGeometry relative="1" as="geometry" />
        </mxCell>
        <mxCell id="bGuJFjjBMeXotuM_YJSE-13" value="" style="endArrow=classic;html=1;rounded=0;exitX=0;exitY=0.593;exitDx=0;exitDy=0;exitPerimeter=0;" parent="1" source="bGuJFjjBMeXotuM_YJSE-7" edge="1">
          <mxGeometry relative="1" as="geometry">
            <mxPoint x="180" y="220" as="sourcePoint" />
            <mxPoint x="110" y="220" as="targetPoint" />
          </mxGeometry>
        </mxCell>
        <mxCell id="bGuJFjjBMeXotuM_YJSE-14" value="File" style="edgeLabel;resizable=0;html=1;;align=center;verticalAlign=middle;" parent="bGuJFjjBMeXotuM_YJSE-13" connectable="0" vertex="1">
          <mxGeometry relative="1" as="geometry" />
        </mxCell>
        <mxCell id="bGuJFjjBMeXotuM_YJSE-15" value="Gui Loads a Modal&lt;div&gt;using variable of File_modal&lt;/div&gt;" style="rounded=1;whiteSpace=wrap;html=1;" parent="1" vertex="1">
          <mxGeometry y="200" width="110" height="45" as="geometry" />
        </mxCell>
        <mxCell id="1zIBoOe9W9eC5epZJuoO-5" style="edgeStyle=orthogonalEdgeStyle;rounded=0;orthogonalLoop=1;jettySize=auto;html=1;entryX=0.5;entryY=0;entryDx=0;entryDy=0;" edge="1" parent="1" source="bGuJFjjBMeXotuM_YJSE-16" target="bGuJFjjBMeXotuM_YJSE-18">
          <mxGeometry relative="1" as="geometry" />
        </mxCell>
        <mxCell id="bGuJFjjBMeXotuM_YJSE-16" value="User Presses the Select file Button&lt;div&gt;There is A Disable Slider For Rom based&lt;/div&gt;" style="rounded=1;whiteSpace=wrap;html=1;" parent="1" vertex="1">
          <mxGeometry y="280" width="120" height="80" as="geometry" />
        </mxCell>
        <mxCell id="bGuJFjjBMeXotuM_YJSE-17" value="" style="endArrow=classic;html=1;rounded=0;entryX=0.5;entryY=0;entryDx=0;entryDy=0;" parent="1" target="bGuJFjjBMeXotuM_YJSE-16" edge="1">
          <mxGeometry width="50" height="50" relative="1" as="geometry">
            <mxPoint x="55" y="250" as="sourcePoint" />
            <mxPoint x="100" y="200" as="targetPoint" />
          </mxGeometry>
        </mxCell>
        <mxCell id="bGuJFjjBMeXotuM_YJSE-21" style="edgeStyle=orthogonalEdgeStyle;rounded=0;orthogonalLoop=1;jettySize=auto;html=1;entryX=0.5;entryY=0;entryDx=0;entryDy=0;" parent="1" source="bGuJFjjBMeXotuM_YJSE-18" target="bGuJFjjBMeXotuM_YJSE-20" edge="1">
          <mxGeometry relative="1" as="geometry" />
        </mxCell>
        <mxCell id="bGuJFjjBMeXotuM_YJSE-18" value="get_file_path()" style="rounded=1;whiteSpace=wrap;html=1;" parent="1" vertex="1">
          <mxGeometry x="190" y="380" width="120" height="30" as="geometry" />
        </mxCell>
        <mxCell id="bGuJFjjBMeXotuM_YJSE-22" style="edgeStyle=orthogonalEdgeStyle;rounded=0;orthogonalLoop=1;jettySize=auto;html=1;entryX=0.5;entryY=0;entryDx=0;entryDy=0;" parent="1" source="bGuJFjjBMeXotuM_YJSE-20" edge="1" target="bGuJFjjBMeXotuM_YJSE-23">
          <mxGeometry relative="1" as="geometry">
            <mxPoint x="60" y="549.9999999999999" as="targetPoint" />
            <Array as="points">
              <mxPoint x="60" y="580" />
            </Array>
          </mxGeometry>
        </mxCell>
        <mxCell id="bGuJFjjBMeXotuM_YJSE-20" value="JavaScript Updates the Variable to show field" style="rounded=1;whiteSpace=wrap;html=1;" parent="1" vertex="1">
          <mxGeometry y="450" width="120" height="60" as="geometry" />
        </mxCell>
        <mxCell id="1zIBoOe9W9eC5epZJuoO-18" style="edgeStyle=orthogonalEdgeStyle;rounded=0;orthogonalLoop=1;jettySize=auto;html=1;" edge="1" parent="1" source="bGuJFjjBMeXotuM_YJSE-23" target="bGuJFjjBMeXotuM_YJSE-32">
          <mxGeometry relative="1" as="geometry" />
        </mxCell>
        <mxCell id="bGuJFjjBMeXotuM_YJSE-23" value="A button is Pressed&lt;div&gt;`Encrypt&lt;span style=&quot;background-color: transparent; color: light-dark(rgb(0, 0, 0), rgb(255, 255, 255));&quot;&gt;`&lt;/span&gt;&lt;/div&gt;&lt;div&gt;&lt;span style=&quot;background-color: transparent; color: light-dark(rgb(0, 0, 0), rgb(255, 255, 255));&quot;&gt;Activates the loader Mech&lt;/span&gt;&lt;/div&gt;" style="rounded=1;whiteSpace=wrap;html=1;" parent="1" vertex="1">
          <mxGeometry x="320" y="580" width="120" height="60" as="geometry" />
        </mxCell>
        <mxCell id="bGuJFjjBMeXotuM_YJSE-29" style="edgeStyle=orthogonalEdgeStyle;rounded=0;orthogonalLoop=1;jettySize=auto;html=1;entryX=0.25;entryY=0;entryDx=0;entryDy=0;" parent="1" source="bGuJFjjBMeXotuM_YJSE-30" edge="1" target="1zIBoOe9W9eC5epZJuoO-1">
          <mxGeometry relative="1" as="geometry">
            <mxPoint x="190" y="940" as="targetPoint" />
            <Array as="points" />
          </mxGeometry>
        </mxCell>
        <mxCell id="bGuJFjjBMeXotuM_YJSE-26" value="Encripts File&lt;div&gt;(in Ram)&lt;/div&gt;" style="rounded=1;whiteSpace=wrap;html=1;" parent="1" vertex="1">
          <mxGeometry x="90" y="760" width="120" height="60" as="geometry" />
        </mxCell>
        <mxCell id="bGuJFjjBMeXotuM_YJSE-28" value="Writes Encripted to disk" style="html=1;verticalAlign=bottom;endArrow=open;dashed=1;endSize=8;curved=0;rounded=0;entryX=1;entryY=0.5;entryDx=0;entryDy=0;" parent="1" edge="1" target="1zIBoOe9W9eC5epZJuoO-2">
          <mxGeometry relative="1" as="geometry">
            <mxPoint y="480" as="sourcePoint" />
            <mxPoint x="-170" y="480" as="targetPoint" />
          </mxGeometry>
        </mxCell>
        <mxCell id="bGuJFjjBMeXotuM_YJSE-34" style="edgeStyle=orthogonalEdgeStyle;rounded=0;orthogonalLoop=1;jettySize=auto;html=1;" parent="1" source="bGuJFjjBMeXotuM_YJSE-32" target="bGuJFjjBMeXotuM_YJSE-26" edge="1">
          <mxGeometry relative="1" as="geometry" />
        </mxCell>
        <mxCell id="bGuJFjjBMeXotuM_YJSE-32" value="Checks if user entered Valid Password" style="rounded=1;whiteSpace=wrap;html=1;" parent="1" vertex="1">
          <mxGeometry x="350" y="680" width="120" height="60" as="geometry" />
        </mxCell>
        <mxCell id="bGuJFjjBMeXotuM_YJSE-36" value="" style="edgeStyle=orthogonalEdgeStyle;rounded=0;orthogonalLoop=1;jettySize=auto;html=1;" parent="1" source="bGuJFjjBMeXotuM_YJSE-26" target="bGuJFjjBMeXotuM_YJSE-30" edge="1">
          <mxGeometry relative="1" as="geometry">
            <mxPoint x="190" y="940" as="targetPoint" />
            <mxPoint x="150" y="820" as="sourcePoint" />
          </mxGeometry>
        </mxCell>
        <mxCell id="bGuJFjjBMeXotuM_YJSE-30" value="Places it to User/Documents/" style="rounded=1;whiteSpace=wrap;html=1;" parent="1" vertex="1">
          <mxGeometry x="90" y="850" width="120" height="60" as="geometry" />
        </mxCell>
        <mxCell id="1zIBoOe9W9eC5epZJuoO-1" value="Shows Modal Sucess with two buttons, Back (goto Home), Open, Open Explorer" style="rounded=1;whiteSpace=wrap;html=1;rotation=0;" vertex="1" parent="1">
          <mxGeometry x="120" y="1000" width="120" height="60" as="geometry" />
        </mxCell>
        <mxCell id="1zIBoOe9W9eC5epZJuoO-2" value="For Future Update" style="rounded=1;whiteSpace=wrap;html=1;" vertex="1" parent="1">
          <mxGeometry x="-300" y="450" width="120" height="60" as="geometry" />
        </mxCell>
        <mxCell id="1zIBoOe9W9eC5epZJuoO-3" value="Saves File Path to App State" style="rounded=1;whiteSpace=wrap;html=1;" vertex="1" parent="1">
          <mxGeometry x="210" y="490" width="120" height="60" as="geometry" />
        </mxCell>
        <mxCell id="1zIBoOe9W9eC5epZJuoO-4" value="" style="edgeStyle=orthogonalEdgeStyle;rounded=0;orthogonalLoop=1;jettySize=auto;html=1;" edge="1" parent="1" source="bGuJFjjBMeXotuM_YJSE-18" target="1zIBoOe9W9eC5epZJuoO-3">
          <mxGeometry relative="1" as="geometry" />
        </mxCell>
        <mxCell id="1zIBoOe9W9eC5epZJuoO-6" style="edgeStyle=orthogonalEdgeStyle;rounded=0;orthogonalLoop=1;jettySize=auto;html=1;" edge="1" parent="1" target="1zIBoOe9W9eC5epZJuoO-1">
          <mxGeometry relative="1" as="geometry">
            <mxPoint x="258.21263157894754" y="550" as="sourcePoint" />
            <mxPoint x="321.71999999999997" y="832.7" as="targetPoint" />
            <Array as="points">
              <mxPoint x="258" y="600" />
              <mxPoint y="600" />
              <mxPoint y="1030" />
            </Array>
          </mxGeometry>
        </mxCell>
        <mxCell id="1zIBoOe9W9eC5epZJuoO-10" style="edgeStyle=orthogonalEdgeStyle;rounded=0;orthogonalLoop=1;jettySize=auto;html=1;entryX=1;entryY=0.25;entryDx=0;entryDy=0;" edge="1" parent="1" source="1zIBoOe9W9eC5epZJuoO-7" target="bGuJFjjBMeXotuM_YJSE-16">
          <mxGeometry relative="1" as="geometry">
            <mxPoint x="410" y="300" as="targetPoint" />
            <Array as="points">
              <mxPoint x="440" y="300" />
            </Array>
          </mxGeometry>
        </mxCell>
        <mxCell id="1zIBoOe9W9eC5epZJuoO-7" value="Gui Loads a Modal&lt;div&gt;using variable of Folder_Modal&lt;/div&gt;" style="rounded=1;whiteSpace=wrap;html=1;" vertex="1" parent="1">
          <mxGeometry x="385" y="200" width="110" height="45" as="geometry" />
        </mxCell>
        <mxCell id="1zIBoOe9W9eC5epZJuoO-11" value="" style="endArrow=classic;html=1;rounded=0;" edge="1" parent="1" source="1zIBoOe9W9eC5epZJuoO-12">
          <mxGeometry width="50" height="50" relative="1" as="geometry">
            <mxPoint x="440" y="310" as="sourcePoint" />
            <mxPoint x="440" y="380" as="targetPoint" />
          </mxGeometry>
        </mxCell>
        <mxCell id="1zIBoOe9W9eC5epZJuoO-13" value="" style="endArrow=classic;html=1;rounded=0;" edge="1" parent="1" target="1zIBoOe9W9eC5epZJuoO-12">
          <mxGeometry width="50" height="50" relative="1" as="geometry">
            <mxPoint x="440" y="310" as="sourcePoint" />
            <mxPoint x="440" y="380" as="targetPoint" />
          </mxGeometry>
        </mxCell>
        <mxCell id="1zIBoOe9W9eC5epZJuoO-14" style="edgeStyle=orthogonalEdgeStyle;rounded=0;orthogonalLoop=1;jettySize=auto;html=1;" edge="1" parent="1" source="1zIBoOe9W9eC5epZJuoO-12">
          <mxGeometry relative="1" as="geometry">
            <mxPoint x="445" y="430" as="targetPoint" />
          </mxGeometry>
        </mxCell>
        <mxCell id="1zIBoOe9W9eC5epZJuoO-12" value="Selects Folder Path" style="rounded=1;whiteSpace=wrap;html=1;" vertex="1" parent="1">
          <mxGeometry x="385" y="340" width="120" height="60" as="geometry" />
        </mxCell>
        <mxCell id="1zIBoOe9W9eC5epZJuoO-17" style="edgeStyle=orthogonalEdgeStyle;rounded=0;orthogonalLoop=1;jettySize=auto;html=1;entryX=1;entryY=0.5;entryDx=0;entryDy=0;" edge="1" parent="1" source="1zIBoOe9W9eC5epZJuoO-15" target="1zIBoOe9W9eC5epZJuoO-3">
          <mxGeometry relative="1" as="geometry" />
        </mxCell>
        <mxCell id="1zIBoOe9W9eC5epZJuoO-19" style="edgeStyle=orthogonalEdgeStyle;rounded=0;orthogonalLoop=1;jettySize=auto;html=1;entryX=0.5;entryY=0;entryDx=0;entryDy=0;" edge="1" parent="1" source="1zIBoOe9W9eC5epZJuoO-15" target="bGuJFjjBMeXotuM_YJSE-23">
          <mxGeometry relative="1" as="geometry" />
        </mxCell>
        <mxCell id="1zIBoOe9W9eC5epZJuoO-15" value="Moves it to a zip in temp" style="rounded=1;whiteSpace=wrap;html=1;" vertex="1" parent="1">
          <mxGeometry x="380" y="430" width="120" height="60" as="geometry" />
        </mxCell>
      </root>
    </mxGraphModel>
  </diagram>
</mxfile>
